<?xml version="1.0" encoding="utf-8" standalone="no"?>
<!DOCTYPE svg PUBLIC "-//W3C//DTD SVG 1.1//EN"
  "http://www.w3.org/Graphics/SVG/1.1/DTD/svg11.dtd">
<svg xmlns:xlink="http://www.w3.org/1999/xlink" width="460.8pt" height="345.6pt" viewBox="0 0 460.8 345.6" xmlns="http://www.w3.org/2000/svg" version="1.1">
 <metadata>
  <rdf:RDF xmlns:dc="http://purl.org/dc/elements/1.1/" xmlns:cc="http://creativecommons.org/ns#" xmlns:rdf="http://www.w3.org/1999/02/22-rdf-syntax-ns#">
   <cc:Work>
    <dc:type rdf:resource="http://purl.org/dc/dcmitype/StillImage"/>
    <dc:date>2022-01-21T12:00:29.343969</dc:date>
    <dc:format>image/svg+xml</dc:format>
    <dc:creator>
     <cc:Agent>
      <dc:title>Matplotlib v3.5.1, https://matplotlib.org/</dc:title>
     </cc:Agent>
    </dc:creator>
   </cc:Work>
  </rdf:RDF>
 </metadata>
 <defs>
  <style type="text/css">*{stroke-linejoin: round; stroke-linecap: butt}</style>
 </defs>
 <g id="figure_1">
  <g id="patch_1">
   <path d="M 0 345.6 
L 460.8 345.6 
L 460.8 0 
L 0 0 
z
" style="fill: #ffffff"/>
  </g>
  <g id="axes_1">
   <g id="patch_2">
    <path d="M 57.6 307.584 
L 414.72 307.584 
L 414.72 41.472 
L 57.6 41.472 
z
" style="fill: #ffffff"/>
   </g>
   <g id="matplotlib.axis_1">
    <g id="xtick_1">
     <g id="line2d_1">
      <defs>
       <path id="m8d89c8a959" d="M 0 0 
L 0 3.5 
" style="stroke: #000000; stroke-width: 0.8"/>
      </defs>
      <g>
       <use xlink:href="#m8d89c8a959" x="73.832727" y="307.584" style="stroke: #000000; stroke-width: 0.8"/>
      </g>
     </g>
     <g id="text_1">
      <!-- 0 -->
      <g transform="translate(70.651477 322.182437)scale(0.1 -0.1)">
       <defs>
        <path id="DejaVuSans-30" d="M 2034 4250 
Q 1547 4250 1301 3770 
Q 1056 3291 1056 2328 
Q 1056 1369 1301 889 
Q 1547 409 2034 409 
Q 2525 409 2770 889 
Q 3016 1369 3016 2328 
Q 3016 3291 2770 3770 
Q 2525 4250 2034 4250 
z
M 2034 4750 
Q 2819 4750 3233 4129 
Q 3647 3509 3647 2328 
Q 3647 1150 3233 529 
Q 2819 -91 2034 -91 
Q 1250 -91 836 529 
Q 422 1150 422 2328 
Q 422 3509 836 4129 
Q 1250 4750 2034 4750 
z
" transform="scale(0.015625)"/>
       </defs>
       <use xlink:href="#DejaVuSans-30"/>
      </g>
     </g>
    </g>
    <g id="xtick_2">
     <g id="line2d_2">
      <g>
       <use xlink:href="#m8d89c8a959" x="137.490481" y="307.584" style="stroke: #000000; stroke-width: 0.8"/>
      </g>
     </g>
     <g id="text_2">
      <!-- 50 -->
      <g transform="translate(131.127981 322.182437)scale(0.1 -0.1)">
       <defs>
        <path id="DejaVuSans-35" d="M 691 4666 
L 3169 4666 
L 3169 4134 
L 1269 4134 
L 1269 2991 
Q 1406 3038 1543 3061 
Q 1681 3084 1819 3084 
Q 2600 3084 3056 2656 
Q 3513 2228 3513 1497 
Q 3513 744 3044 326 
Q 2575 -91 1722 -91 
Q 1428 -91 1123 -41 
Q 819 9 494 109 
L 494 744 
Q 775 591 1075 516 
Q 1375 441 1709 441 
Q 2250 441 2565 725 
Q 2881 1009 2881 1497 
Q 2881 1984 2565 2268 
Q 2250 2553 1709 2553 
Q 1456 2553 1204 2497 
Q 953 2441 691 2322 
L 691 4666 
z
" transform="scale(0.015625)"/>
       </defs>
       <use xlink:href="#DejaVuSans-35"/>
       <use xlink:href="#DejaVuSans-30" x="63.623047"/>
      </g>
     </g>
    </g>
    <g id="xtick_3">
     <g id="line2d_3">
      <g>
       <use xlink:href="#m8d89c8a959" x="201.148235" y="307.584" style="stroke: #000000; stroke-width: 0.8"/>
      </g>
     </g>
     <g id="text_3">
      <!-- 100 -->
      <g transform="translate(191.604485 322.182437)scale(0.1 -0.1)">
       <defs>
        <path id="DejaVuSans-31" d="M 794 531 
L 1825 531 
L 1825 4091 
L 703 3866 
L 703 4441 
L 1819 4666 
L 2450 4666 
L 2450 531 
L 3481 531 
L 3481 0 
L 794 0 
L 794 531 
z
" transform="scale(0.015625)"/>
       </defs>
       <use xlink:href="#DejaVuSans-31"/>
       <use xlink:href="#DejaVuSans-30" x="63.623047"/>
       <use xlink:href="#DejaVuSans-30" x="127.246094"/>
      </g>
     </g>
    </g>
    <g id="xtick_4">
     <g id="line2d_4">
      <g>
       <use xlink:href="#m8d89c8a959" x="264.805989" y="307.584" style="stroke: #000000; stroke-width: 0.8"/>
      </g>
     </g>
     <g id="text_4">
      <!-- 150 -->
      <g transform="translate(255.262239 322.182437)scale(0.1 -0.1)">
       <use xlink:href="#DejaVuSans-31"/>
       <use xlink:href="#DejaVuSans-35" x="63.623047"/>
       <use xlink:href="#DejaVuSans-30" x="127.246094"/>
      </g>
     </g>
    </g>
    <g id="xtick_5">
     <g id="line2d_5">
      <g>
       <use xlink:href="#m8d89c8a959" x="328.463743" y="307.584" style="stroke: #000000; stroke-width: 0.8"/>
      </g>
     </g>
     <g id="text_5">
      <!-- 200 -->
      <g transform="translate(318.919993 322.182437)scale(0.1 -0.1)">
       <defs>
        <path id="DejaVuSans-32" d="M 1228 531 
L 3431 531 
L 3431 0 
L 469 0 
L 469 531 
Q 828 903 1448 1529 
Q 2069 2156 2228 2338 
Q 2531 2678 2651 2914 
Q 2772 3150 2772 3378 
Q 2772 3750 2511 3984 
Q 2250 4219 1831 4219 
Q 1534 4219 1204 4116 
Q 875 4013 500 3803 
L 500 4441 
Q 881 4594 1212 4672 
Q 1544 4750 1819 4750 
Q 2544 4750 2975 4387 
Q 3406 4025 3406 3419 
Q 3406 3131 3298 2873 
Q 3191 2616 2906 2266 
Q 2828 2175 2409 1742 
Q 1991 1309 1228 531 
z
" transform="scale(0.015625)"/>
       </defs>
       <use xlink:href="#DejaVuSans-32"/>
       <use xlink:href="#DejaVuSans-30" x="63.623047"/>
       <use xlink:href="#DejaVuSans-30" x="127.246094"/>
      </g>
     </g>
    </g>
    <g id="xtick_6">
     <g id="line2d_6">
      <g>
       <use xlink:href="#m8d89c8a959" x="392.121497" y="307.584" style="stroke: #000000; stroke-width: 0.8"/>
      </g>
     </g>
     <g id="text_6">
      <!-- 250 -->
      <g transform="translate(382.577747 322.182437)scale(0.1 -0.1)">
       <use xlink:href="#DejaVuSans-32"/>
       <use xlink:href="#DejaVuSans-35" x="63.623047"/>
       <use xlink:href="#DejaVuSans-30" x="127.246094"/>
      </g>
     </g>
    </g>
   </g>
   <g id="matplotlib.axis_2">
    <g id="ytick_1">
     <g id="line2d_7">
      <defs>
       <path id="me4d20d8b0e" d="M 0 0 
L -3.5 0 
" style="stroke: #000000; stroke-width: 0.8"/>
      </defs>
      <g>
       <use xlink:href="#me4d20d8b0e" x="57.6" y="295.488" style="stroke: #000000; stroke-width: 0.8"/>
      </g>
     </g>
     <g id="text_7">
      <!-- 0 -->
      <g transform="translate(44.2375 299.287219)scale(0.1 -0.1)">
       <use xlink:href="#DejaVuSans-30"/>
      </g>
     </g>
    </g>
    <g id="ytick_2">
     <g id="line2d_8">
      <g>
       <use xlink:href="#me4d20d8b0e" x="57.6" y="238.611149" style="stroke: #000000; stroke-width: 0.8"/>
      </g>
     </g>
     <g id="text_8">
      <!-- 5000 -->
      <g transform="translate(25.15 242.410367)scale(0.1 -0.1)">
       <use xlink:href="#DejaVuSans-35"/>
       <use xlink:href="#DejaVuSans-30" x="63.623047"/>
       <use xlink:href="#DejaVuSans-30" x="127.246094"/>
       <use xlink:href="#DejaVuSans-30" x="190.869141"/>
      </g>
     </g>
    </g>
    <g id="ytick_3">
     <g id="line2d_9">
      <g>
       <use xlink:href="#me4d20d8b0e" x="57.6" y="181.734297" style="stroke: #000000; stroke-width: 0.8"/>
      </g>
     </g>
     <g id="text_9">
      <!-- 10000 -->
      <g transform="translate(18.7875 185.533516)scale(0.1 -0.1)">
       <use xlink:href="#DejaVuSans-31"/>
       <use xlink:href="#DejaVuSans-30" x="63.623047"/>
       <use xlink:href="#DejaVuSans-30" x="127.246094"/>
       <use xlink:href="#DejaVuSans-30" x="190.869141"/>
       <use xlink:href="#DejaVuSans-30" x="254.492188"/>
      </g>
     </g>
    </g>
    <g id="ytick_4">
     <g id="line2d_10">
      <g>
       <use xlink:href="#me4d20d8b0e" x="57.6" y="124.857446" style="stroke: #000000; stroke-width: 0.8"/>
      </g>
     </g>
     <g id="text_10">
      <!-- 15000 -->
      <g transform="translate(18.7875 128.656664)scale(0.1 -0.1)">
       <use xlink:href="#DejaVuSans-31"/>
       <use xlink:href="#DejaVuSans-35" x="63.623047"/>
       <use xlink:href="#DejaVuSans-30" x="127.246094"/>
       <use xlink:href="#DejaVuSans-30" x="190.869141"/>
       <use xlink:href="#DejaVuSans-30" x="254.492188"/>
      </g>
     </g>
    </g>
    <g id="ytick_5">
     <g id="line2d_11">
      <g>
       <use xlink:href="#me4d20d8b0e" x="57.6" y="67.980594" style="stroke: #000000; stroke-width: 0.8"/>
      </g>
     </g>
     <g id="text_11">
      <!-- 20000 -->
      <g transform="translate(18.7875 71.779813)scale(0.1 -0.1)">
       <use xlink:href="#DejaVuSans-32"/>
       <use xlink:href="#DejaVuSans-30" x="63.623047"/>
       <use xlink:href="#DejaVuSans-30" x="127.246094"/>
       <use xlink:href="#DejaVuSans-30" x="190.869141"/>
       <use xlink:href="#DejaVuSans-30" x="254.492188"/>
      </g>
     </g>
    </g>
   </g>
   <g id="line2d_12">
    <path d="M 73.832727 295.476625 
L 82.744813 295.476625 
L 89.110588 295.396997 
L 90.383743 295.465249 
L 91.656898 295.351496 
L 92.930053 295.453874 
L 94.203209 295.34012 
L 95.476364 295.419748 
L 96.749519 295.351496 
L 98.022674 295.146739 
L 99.295829 295.271868 
L 100.568984 295.123988 
L 101.842139 294.680349 
L 103.115294 295.317369 
L 104.388449 293.895448 
L 105.661604 295.408372 
L 106.934759 294.885105 
L 108.207914 294.57797 
L 109.48107 295.226366 
L 110.754225 294.066079 
L 112.02738 294.87373 
L 114.57369 295.02161 
L 117.12 293.975076 
L 118.393155 295.010234 
L 119.66631 294.373214 
L 120.939465 294.680349 
L 122.21262 294.680349 
L 123.485775 294.009202 
L 124.75893 294.270835 
L 126.032086 294.907856 
L 127.305241 294.509718 
L 128.578396 294.72585 
L 129.851551 293.258427 
L 131.124706 294.077454 
L 132.397861 294.668973 
L 133.671016 294.384589 
L 134.944171 294.748601 
L 136.217326 293.247052 
L 137.490481 294.339088 
L 138.763636 294.270835 
L 140.036791 293.906824 
L 141.309947 293.838571 
L 142.583102 291.700002 
L 143.856257 294.40734 
L 145.129412 293.258427 
L 146.402567 293.235677 
L 147.675722 293.554187 
L 148.948877 288.196388 
L 150.222032 294.122956 
L 151.495187 291.50662 
L 152.768342 291.756879 
L 154.041497 289.675186 
L 155.314652 289.288423 
L 156.587807 290.357708 
L 157.860963 294.031953 
L 159.134118 289.277048 
L 160.407273 284.954407 
L 161.680428 289.925444 
L 162.953583 280.336007 
L 164.226738 294.498343 
L 165.499893 289.800315 
L 166.773048 257.460137 
L 168.046203 293.690691 
L 169.319358 293.508686 
L 170.592513 284.294636 
L 171.865668 284.658647 
L 173.138824 290.380459 
L 174.411979 291.722752 
L 175.685134 289.231546 
L 176.958289 290.266705 
L 178.231444 285.284293 
L 179.504599 272.327746 
L 180.777754 263.773468 
L 182.050909 266.685562 
L 183.324064 260.952376 
L 184.597219 259.985469 
L 185.870374 212.038284 
L 187.143529 258.540797 
L 188.416684 246.096142 
L 190.962995 196.920416 
L 192.23615 53.568 
L 193.509305 211.025876 
L 194.78246 118.828499 
L 196.055615 179.971115 
L 197.32877 273.146773 
L 198.601925 154.433408 
L 199.87508 256.732113 
L 201.148235 241.966883 
L 202.42139 279.642109 
L 203.694545 250.543912 
L 204.967701 224.505689 
L 206.240856 278.925461 
L 207.514011 251.078554 
L 208.787166 269.83654 
L 210.060321 268.721754 
L 211.333476 256.800366 
L 212.606631 268.937886 
L 213.879786 279.66486 
L 215.152941 266.856193 
L 216.426096 289.413552 
L 217.699251 258.199536 
L 218.972406 273.761043 
L 220.245561 287.104352 
L 221.518717 279.551106 
L 222.791872 277.116777 
L 224.065027 265.946163 
L 225.338182 283.157099 
L 226.611337 282.872714 
L 227.884492 281.268787 
L 229.157647 279.187094 
L 230.430802 272.657632 
L 231.703957 279.676235 
L 232.977112 282.88409 
L 234.250267 281.337039 
L 235.523422 276.036117 
L 236.796578 282.4177 
L 238.069733 281.50767 
L 239.342888 287.547992 
L 240.616043 284.510768 
L 241.889198 272.191242 
L 243.162353 285.591428 
L 244.435508 286.137446 
L 245.708663 282.997843 
L 246.981818 286.854094 
L 248.254973 273.442532 
L 249.528128 286.251199 
L 250.801283 282.975093 
L 252.074439 285.773434 
L 253.347594 285.386671 
L 254.620749 275.706231 
L 255.893904 283.987501 
L 257.167059 285.022659 
L 258.440214 288.901661 
L 259.713369 285.477674 
L 260.986524 269.472528 
L 262.259679 287.297733 
L 263.532834 284.772401 
L 264.805989 287.320484 
L 266.079144 287.058851 
L 267.352299 278.106434 
L 268.625455 286.205698 
L 269.89861 287.218106 
L 271.171765 285.113662 
L 272.44492 288.105385 
L 273.718075 277.458038 
L 274.99123 287.092977 
L 276.264385 281.985435 
L 277.53754 288.094009 
L 278.810695 289.231546 
L 280.08385 275.091961 
L 281.357005 289.220171 
L 282.63016 287.149854 
L 283.903316 289.117793 
L 285.176471 287.50249 
L 286.449626 282.895465 
L 287.722781 286.637962 
L 288.995936 287.638994 
L 290.269091 288.173637 
L 291.542246 290.89235 
L 292.815401 273.84067 
L 294.088556 291.426993 
L 295.361711 288.037132 
L 296.634866 285.170539 
L 297.908021 287.764124 
L 299.181176 280.711394 
L 300.454332 285.227416 
L 301.727487 289.208796 
L 303.000642 289.04954 
L 304.273797 291.426993 
L 305.546952 279.175719 
L 306.820107 288.617276 
L 308.093262 289.777564 
L 309.366417 288.321517 
L 310.639572 285.568677 
L 311.912727 284.180882 
L 313.185882 287.479739 
L 314.459037 288.514898 
L 315.732193 292.382524 
L 317.005348 287.320484 
L 318.278503 289.436303 
L 319.551658 290.334957 
L 320.824813 292.701034 
L 322.097968 291.404242 
L 323.371123 288.674153 
L 324.644278 291.552122 
L 325.917433 290.27808 
L 327.190588 293.690691 
L 328.463743 287.20673 
L 329.736898 285.432173 
L 331.010053 291.984386 
L 332.283209 290.812723 
L 333.556364 288.913036 
L 334.829519 293.144674 
L 336.102674 288.43527 
L 337.375829 292.71241 
L 338.648984 292.393899 
L 339.922139 290.187077 
L 341.195294 291.893383 
L 342.468449 284.158131 
L 343.741604 290.448711 
L 345.014759 290.164327 
L 346.287914 291.472494 
L 347.56107 289.04954 
L 348.834225 279.437353 
L 350.10738 293.167424 
L 351.380535 289.868567 
L 353.926845 294.361838 
L 355.2 291.552122 
L 356.473155 294.122956 
L 357.74631 295.055736 
L 359.019465 294.657598 
L 360.29262 294.600721 
L 361.565775 294.40734 
L 362.83893 295.123988 
L 364.112086 294.953358 
L 365.385241 295.203616 
L 366.658396 295.317369 
L 367.931551 295.123988 
L 369.204706 295.374246 
L 370.477861 295.271868 
L 373.024171 295.431123 
L 374.297326 295.260493 
L 375.570481 295.237742 
L 376.843636 295.442499 
L 378.116791 295.067111 
L 379.389947 295.374246 
L 380.663102 295.089862 
L 381.936257 295.328745 
L 383.209412 295.237742 
L 384.482567 295.362871 
L 385.755722 295.16949 
L 387.028877 295.408372 
L 388.302032 295.408372 
L 389.575187 295.237742 
L 390.848342 295.488 
L 392.121497 295.374246 
L 394.667807 295.488 
L 398.487273 295.488 
L 398.487273 295.488 
" clip-path="url(#p35e0a1d132)" style="fill: none; stroke: #1f77b4; stroke-width: 1.5; stroke-linecap: square"/>
   </g>
   <g id="patch_3">
    <path d="M 57.6 307.584 
L 57.6 41.472 
" style="fill: none; stroke: #000000; stroke-width: 0.8; stroke-linejoin: miter; stroke-linecap: square"/>
   </g>
   <g id="patch_4">
    <path d="M 414.72 307.584 
L 414.72 41.472 
" style="fill: none; stroke: #000000; stroke-width: 0.8; stroke-linejoin: miter; stroke-linecap: square"/>
   </g>
   <g id="patch_5">
    <path d="M 57.6 307.584 
L 414.72 307.584 
" style="fill: none; stroke: #000000; stroke-width: 0.8; stroke-linejoin: miter; stroke-linecap: square"/>
   </g>
   <g id="patch_6">
    <path d="M 57.6 41.472 
L 414.72 41.472 
" style="fill: none; stroke: #000000; stroke-width: 0.8; stroke-linejoin: miter; stroke-linecap: square"/>
   </g>
  </g>
 </g>
 <defs>
  <clipPath id="p35e0a1d132">
   <rect x="57.6" y="41.472" width="357.12" height="266.112"/>
  </clipPath>
 </defs>
</svg>
